<?xml version="1.0" standalone="no"?>
<!DOCTYPE svg PUBLIC "-//W3C//DTD SVG 20010904//EN" "http://www.w3.org/TR/2001/REC-SVG-20010904/DTD/svg10.dtd">
<svg version="1.0" xmlns="http://www.w3.org/2000/svg" width="402.000000pt" height="581.000000pt"
  viewBox="0 0 402.000000 581.000000" preserveAspectRatio="xMidYMid meet">

  <g transform="translate(0.000000,581.000000) scale(0.100000,-0.100000)" fill="#ffffff" stroke="none">
    <path d="M2166 5668 c-52 -60 -106 -143 -106 -162 0 -34 29 -13 69 49 23 35
46 67 51 70 5 3 7 -59 3 -152 l-6 -158 -30 -27 c-17 -17 -40 -28 -57 -28 -16
0 -42 -11 -57 -24 -24 -21 -28 -32 -28 -78 -1 -29 -7 -64 -14 -77 -7 -13 -11
-39 -9 -57 4 -37 -2 -43 -22 -19 -13 15 -56 20 -85 9 -9 -4 -21 -17 -25 -30
-8 -21 -13 -22 -35 -14 -19 7 -34 6 -55 -5 -35 -18 -44 -44 -35 -101 l6 -44
-31 0 c-22 0 -41 -9 -61 -29 -43 -44 -38 -92 18 -152 20 -22 22 -28 9 -38 -11
-9 -22 -7 -51 14 -47 31 -69 32 -100 0 -19 -18 -25 -35 -25 -70 l0 -46 -35 7
c-25 4 -43 1 -60 -10 -22 -15 -25 -24 -25 -76 0 -55 -2 -61 -25 -70 -29 -11
-65 -65 -65 -98 0 -37 27 -78 60 -92 37 -15 38 -35 4 -71 l-25 -26 0 -349 c0
-325 12 -529 37 -631 5 -18 1 -23 -23 -28 -125 -28 -225 -79 -292 -150 -46
-49 -50 -56 -57 -121 -4 -38 -2 -181 5 -319 6 -137 11 -271 11 -297 l0 -48
-38 0 c-21 0 -48 -7 -60 -16 -45 -31 -66 -109 -42 -154 7 -13 5 -26 -5 -47 -8
-15 -15 -51 -15 -80 0 -44 5 -58 31 -88 l32 -36 -8 -182 c-12 -258 -11 -344 3
-682 10 -253 29 -447 43 -459 20 -17 193 -74 379 -125 58 -16 155 -42 215 -59
61 -17 136 -36 167 -42 116 -23 348 -43 558 -47 220 -5 308 1 655 47 77 10
185 24 240 30 55 6 125 18 154 27 40 11 76 14 130 9 85 -7 139 4 166 34 10 11
35 25 55 30 42 11 89 51 119 100 16 27 21 51 21 108 0 74 -10 104 -54 167 -16
23 -20 42 -18 81 6 88 -48 177 -113 190 l-32 6 -7 241 c-11 373 -20 530 -33
552 -6 11 -28 45 -48 75 l-37 55 6 290 c3 160 9 358 12 441 8 185 1 251 -32
300 -17 25 -23 45 -20 60 4 13 0 42 -8 65 -13 37 -13 46 0 70 18 36 18 110 0
154 -25 59 -83 81 -161 62 -27 -7 -31 -4 -43 23 -8 16 -26 37 -42 47 l-28 16
0 344 0 344 -26 20 c-33 26 -34 57 -2 69 32 12 66 57 66 89 0 35 -34 89 -66
103 -23 11 -25 16 -20 49 12 78 -24 119 -94 105 l-30 -5 0 49 c0 86 -65 118
-128 65 -26 -22 -31 -23 -48 -10 -18 14 -18 16 -2 25 23 14 58 73 58 99 0 40
-28 79 -65 91 -19 6 -39 9 -45 5 -7 -4 -8 12 -4 48 6 51 4 57 -20 82 -22 22
-33 26 -58 21 -25 -5 -35 -1 -59 25 -24 26 -34 30 -59 25 -27 -5 -32 -2 -41
22 -6 15 -20 37 -32 50 -17 19 -22 36 -22 82 0 47 -4 63 -23 83 -22 24 -23 26
-8 55 42 81 -18 242 -90 242 -22 0 -24 4 -24 45 0 39 4 47 24 54 13 5 42 7 66
4 37 -5 42 -4 38 13 -3 17 -13 19 -83 19 l-79 0 -10 -34 -10 -34 -10 38 c-6
21 -16 40 -22 42 -7 2 -28 -15 -48 -39z m147 -166 c18 -3 36 -16 48 -36 23
-38 24 -58 3 -97 -20 -39 -53 -36 -73 6 -8 17 -20 34 -28 38 -8 5 -13 27 -13
59 0 44 2 49 18 43 9 -4 30 -10 45 -13z m-86 -258 c-3 -3 -12 -4 -19 -1 -8 3
-5 6 6 6 11 1 17 -2 13 -5z m172 -26 c14 -24 14 -30 -2 -62 -23 -49 -47 -46
-76 9 -23 44 -23 46 -5 66 25 27 64 21 83 -13z m-305 -20 c-4 -13 -7 -31 -6
-40 1 -24 -37 -45 -49 -27 -23 36 0 89 37 89 22 0 24 -3 18 -22z m183 -16 c42
-23 42 -115 1 -159 -54 -58 -134 1 -114 82 8 30 41 34 49 5 3 -11 12 -20 21
-20 23 0 20 36 -4 60 -26 26 -54 25 -79 -1 -26 -28 -34 -69 -22 -102 9 -22 8
-27 -5 -27 -34 0 -54 20 -54 54 0 25 6 35 25 44 17 8 25 20 25 37 0 48 89 63
157 27z m166 -100 c20 -22 39 -71 32 -82 -12 -19 -49 8 -62 45 -18 53 -2 73
30 37z m-400 -29 c2 -10 8 -26 12 -35 5 -13 2 -18 -9 -18 -19 0 -38 33 -30 54
8 21 20 20 27 -1z m331 -15 c7 -20 5 -33 -8 -52 -19 -29 -34 -32 -61 -12 -18
13 -18 14 3 41 12 15 22 34 22 42 0 24 34 10 44 -19z m194 -50 c7 -7 12 -25
12 -40 0 -32 28 -39 50 -13 19 23 57 18 75 -9 14 -22 15 -28 1 -60 -18 -44
-31 -45 -50 -7 -17 32 -57 47 -86 31 -29 -16 -37 -12 -49 21 -15 43 -14 55 5
73 19 19 26 20 42 4z m-625 -19 c13 -18 13 -25 -2 -60 -11 -28 -20 -37 -31
-33 -50 22 -72 17 -105 -21 l-32 -38 -17 43 c-15 39 -15 44 -1 66 19 29 44 30
79 3 31 -24 46 -18 46 20 0 15 3 31 7 34 13 14 42 6 56 -14z m273 1 c17 0 24
-6 24 -19 0 -27 -13 -33 -49 -20 -21 7 -31 18 -31 31 0 14 5 18 16 14 9 -3 27
-6 40 -6z m246 -43 c-2 -19 4 -49 13 -66 l16 -31 -56 0 c-59 0 -85 -9 -122
-43 -19 -16 -25 -18 -38 -7 -27 23 -18 93 16 110 14 8 26 4 54 -21 20 -18 38
-29 42 -26 3 4 6 31 7 62 2 61 15 78 50 65 17 -6 20 -15 18 -43z m-401 22 c6
-13 8 -38 5 -61 -8 -51 17 -64 46 -25 36 50 88 25 88 -42 0 -51 -20 -68 -46
-40 -35 39 -73 51 -142 47 -36 -2 -60 -2 -54 0 23 7 44 63 38 97 -5 22 -2 35
6 38 27 11 48 6 59 -14z m556 -101 c33 -36 43 -63 43 -113 0 -112 -82 -205
-183 -205 -105 0 -190 129 -144 220 23 46 125 52 168 9 30 -30 26 -103 -7
-134 -49 -45 -97 -22 -92 44 3 31 7 36 30 39 20 2 28 -2 33 -18 8 -26 31 -20
27 6 -6 29 -22 44 -48 44 -62 0 -88 -97 -39 -145 37 -38 79 -33 126 14 36 35
39 43 39 93 0 39 -6 62 -19 80 -19 24 -19 24 5 56 30 38 34 39 61 10z m-707
-20 c19 -31 19 -32 -1 -56 -23 -30 -25 -101 -4 -142 31 -61 118 -80 154 -34
21 27 28 88 13 110 -28 42 -102 33 -102 -13 0 -29 16 -30 30 -2 7 13 19 19 33
17 18 -2 23 -11 25 -41 4 -45 -11 -67 -45 -67 -68 0 -102 116 -47 159 27 21
116 30 140 13 36 -24 44 -100 17 -157 -29 -61 -131 -107 -189 -85 -41 16 -93
68 -115 115 -34 72 -19 177 28 204 29 17 42 13 63 -21z m-146 -122 c6 -43 5
-60 -4 -66 -32 -20 -90 31 -90 79 0 36 19 53 55 49 28 -3 30 -6 39 -62z m1024
22 c4 -46 -32 -88 -74 -88 -26 0 -27 1 -20 46 3 26 6 55 6 66 0 16 6 19 43 16
41 -3 42 -4 45 -40z m-103 -129 c-9 -17 -19 -28 -22 -25 -8 8 17 56 29 56 5 0
1 -14 -7 -31z m233 -1 c12 -12 17 -90 6 -101 -4 -3 -16 0 -28 8 -38 27 -111
12 -145 -29 -7 -9 -18 -13 -25 -9 -6 4 -29 10 -50 13 -34 4 -40 9 -43 34 -3
24 -1 28 14 24 10 -3 24 -7 32 -9 9 -3 17 8 23 29 7 26 13 32 37 32 15 0 36
-9 46 -20 24 -27 32 -25 65 10 30 32 49 37 68 18z m-1303 -28 l28 -29 29 24
c46 39 88 28 88 -22 0 -23 23 -32 35 -13 14 22 35 10 35 -20 0 -27 -3 -30 -31
-30 -17 0 -39 -5 -50 -11 -16 -8 -25 -5 -49 14 -38 33 -91 42 -128 23 -16 -8
-32 -12 -36 -9 -8 8 -8 88 1 96 15 16 51 5 78 -23z m23 -101 c18 -6 35 -22 42
-40 15 -34 16 -32 -34 -47 -29 -8 -43 -8 -53 0 -17 13 -17 85 0 91 6 3 12 6
13 6 1 1 15 -4 32 -10z m1240 -32 c4 -47 -12 -71 -38 -57 -10 6 -30 10 -44 10
-29 0 -31 7 -15 44 13 27 45 46 74 43 16 -2 21 -11 23 -40z m-1376 7 c43 -30
51 -64 15 -64 -12 0 -32 -7 -43 -15 -19 -13 -23 -12 -43 6 -20 19 -30 77 -14
92 13 14 48 6 85 -19z m1548 -12 c0 -51 -29 -81 -63 -64 -12 6 -32 14 -44 17
-13 4 -23 12 -23 19 0 20 72 66 102 66 26 0 28 -3 28 -38z m-342 -61 c3 -48 2
-51 -21 -51 -52 0 -71 -67 -38 -131 19 -36 20 -44 8 -56 -24 -24 -94 -29 -117
-8 -39 35 -11 143 40 155 26 6 28 17 14 72 -13 54 49 110 91 83 15 -9 21 -25
23 -64z m-863 44 c26 -25 34 -78 15 -90 -22 -14 -10 -43 20 -49 23 -4 35 -15
45 -40 14 -33 14 -37 -10 -72 -14 -20 -25 -41 -25 -45 0 -13 -45 -11 -75 3
-30 14 -31 18 -5 60 24 40 25 69 5 108 -11 21 -23 30 -40 30 -23 0 -25 4 -25
48 0 26 5 53 12 60 19 19 57 14 83 -13z m355 7 c33 -27 20 -62 -23 -62 -18 0
-42 -3 -54 -6 -33 -9 -30 21 6 57 34 34 41 35 71 11z m358 -63 c-1 -13 -7 -23
-13 -22 -13 3 -18 30 -11 50 10 24 29 1 24 -28z m-164 12 c9 -10 20 -35 23
-55 5 -29 2 -41 -15 -56 -27 -26 -52 -26 -52 0 0 10 -13 35 -30 53 -35 40 -36
45 -12 63 25 19 66 17 86 -5z m-818 -97 c5 -36 6 -68 2 -70 -26 -16 -118 36
-118 66 0 21 58 70 82 70 22 0 25 -6 34 -66z m1242 27 c6 -64 -42 -131 -94
-131 -27 0 -64 43 -64 76 0 55 33 74 50 28 12 -31 34 -21 26 12 -5 18 0 26 21
38 41 22 58 16 61 -23z m142 29 c27 -14 42 -47 35 -70 -8 -25 -55 -50 -94 -50
-29 0 -29 1 -20 32 5 18 9 48 9 65 0 29 3 33 26 33 14 0 34 -5 44 -10z m-1538
-53 c-4 -52 -3 -55 34 -85 21 -18 45 -32 52 -32 7 0 12 -8 10 -17 -2 -14 -13
-18 -43 -18 -39 0 -40 1 -45 40 -5 36 -8 40 -37 43 -65 6 -74 74 -13 104 19
10 38 18 41 18 3 0 4 -24 1 -53z m283 41 c19 -8 25 -18 23 -36 -4 -32 19 -41
24 -10 4 30 29 30 44 -1 24 -47 -13 -101 -69 -101 -38 0 -87 61 -87 109 0 54
14 62 65 39z m353 -16 c-2 -4 -12 -24 -21 -45 -10 -21 -22 -35 -27 -32 -13 8
-13 61 0 86 9 16 15 17 31 8 11 -5 19 -13 17 -17z m1045 1 c19 -18 23 -68 5
-79 -6 -4 -25 -10 -42 -13 -27 -6 -32 -12 -36 -46 -5 -43 -21 -52 -66 -41 -36
9 -29 27 24 61 l47 30 0 58 c0 57 0 58 25 52 14 -4 33 -14 43 -22z m-823 -13
c19 -19 27 -50 14 -50 -3 0 -17 9 -31 20 -34 27 -55 25 -92 -6 -36 -30 -41
-75 -15 -113 20 -28 42 -14 25 17 -6 11 -11 29 -11 40 0 24 33 55 56 50 25 -5
54 -67 54 -116 0 -37 -6 -50 -35 -79 -29 -29 -40 -34 -72 -31 -31 2 -42 10
-67 46 -37 53 -40 117 -8 179 27 53 44 62 110 63 39 0 57 -5 72 -20z m-605
-159 c11 -5 28 -12 38 -15 24 -8 23 -53 -2 -61 -52 -16 -121 48 -105 97 5 18
7 18 27 3 12 -8 31 -19 42 -24z m717 8 c40 -53 15 -139 -40 -139 -40 0 -55 29
-42 86 6 25 8 50 5 55 -11 16 6 30 32 27 15 -2 35 -15 45 -29z m463 12 c14
-47 -40 -97 -97 -89 -38 5 -31 48 9 62 18 6 40 19 50 29 22 22 30 22 38 -2z
m-836 -38 c14 -52 7 -63 -41 -63 -34 0 -37 21 -11 75 23 47 38 44 52 -12z
m597 -65 c37 -38 19 -103 -26 -91 -29 8 -34 21 -19 49 10 19 10 27 1 36 -10
10 -20 8 -47 -6 -44 -24 -55 -15 -18 14 30 24 85 23 109 -2z m469 -215 c-9
-155 -29 -286 -40 -260 -10 24 -32 21 -39 -5 -3 -13 -6 -65 -6 -115 0 -51 -4
-93 -8 -93 -8 0 -24 120 -38 278 -6 71 -17 93 -35 75 -5 -5 -4 -82 3 -183 l11
-175 -27 -40 c-22 -32 -27 -49 -24 -83 l3 -43 -30 7 c-103 23 -482 212 -662
331 -106 71 -311 247 -364 314 l-31 39 213 0 c644 0 882 14 1010 59 30 11 58
20 63 20 4 1 5 -56 1 -126z m-1381 -217 c98 -77 385 -265 481 -317 133 -72
342 -145 509 -179 87 -18 53 -30 -39 -14 -170 29 -472 118 -620 182 -220 95
-420 215 -538 323 -102 92 -115 118 -123 236 l-6 98 127 -133 c70 -73 164
-161 209 -196z m-116 289 c53 -8 112 -15 130 -15 30 0 50 -16 185 -153 200
-202 346 -310 592 -441 91 -49 235 -110 308 -131 32 -9 56 -19 54 -21 -4 -5
-125 25 -191 46 -17 5 -83 26 -146 46 -125 40 -235 85 -345 141 -93 47 -376
216 -445 266 -60 44 -290 265 -290 280 0 5 11 6 26 3 14 -4 69 -13 122 -21z
m-110 -326 c104 -97 346 -255 522 -343 127 -63 367 -150 560 -204 l35 -10 -50
-1 c-65 -1 -224 27 -465 83 -264 62 -396 114 -546 217 -104 72 -112 83 -123
169 -17 132 -19 160 -14 160 3 0 39 -32 81 -71z m1569 -86 c-3 -10 -5 -2 -5
17 0 19 2 27 5 18 2 -10 2 -26 0 -35z m-1524 -217 c101 -76 303 -171 445 -210
26 -8 99 -29 162 -49 238 -72 407 -99 632 -101 164 -1 168 -2 168 -22 0 -100
-887 -147 -1255 -67 -75 16 -183 52 -190 62 -2 4 -9 56 -15 116 -16 161 -30
277 -37 303 -8 34 10 27 90 -32z m1610 40 c10 -8 21 -36 27 -67 10 -61 -2 -79
-51 -79 -24 0 -30 6 -38 38 -12 42 -14 105 -4 115 11 11 47 7 66 -7z m-139 -8
c3 -7 6 -32 9 -55 l5 -41 -42 -5 c-53 -5 -60 2 -49 50 11 46 67 83 77 51z
m344 -74 c18 -12 22 -25 22 -70 0 -80 -31 -127 -46 -69 -6 23 -49 68 -74 77
-19 6 10 56 39 67 35 13 34 13 59 -5z m-322 -95 c29 -18 32 -23 24 -45 -6 -14
-10 -36 -10 -50 0 -20 -5 -24 -32 -24 -71 0 -109 93 -50 124 34 19 29 19 68
-5z m231 -21 c28 -23 53 -91 53 -146 0 -43 -5 -57 -25 -77 -27 -27 -33 -29
-55 -15 -12 8 -11 12 8 32 69 74 34 178 -59 178 -20 0 -54 -30 -76 -66 -10
-17 -12 -18 -18 -2 -10 25 33 106 59 112 34 7 96 -1 113 -16z m-39 -94 c28
-20 28 -35 -3 -68 -25 -27 -78 -36 -90 -16 -3 6 3 10 14 10 26 0 36 17 20 36
-9 11 -8 18 6 34 22 24 24 24 53 4z m-1829 -119 c7 -40 18 -66 32 -78 77 -63
532 -143 783 -137 316 8 616 45 737 91 22 9 33 6 65 -16 39 -27 69 -29 144
-10 22 6 23 5 8 -7 -9 -8 -63 -24 -120 -37 -57 -13 -109 -25 -117 -27 -8 -3
-12 -13 -8 -29 5 -31 -4 -34 -125 -37 -92 -3 -104 5 -33 23 51 13 74 34 57 51
-7 7 -65 5 -204 -11 -355 -38 -440 -44 -583 -37 -77 3 -152 9 -167 12 -17 4
-28 2 -28 -4 0 -6 26 -16 58 -22 31 -6 64 -14 72 -18 28 -12 -84 -14 -195 -3
-60 6 -171 15 -245 21 -222 19 -330 50 -402 118 -24 22 -39 72 -22 72 3 0 29
-18 56 -40 47 -38 78 -50 78 -32 0 4 -12 15 -27 25 -16 9 -43 30 -62 47 -29
25 -32 31 -21 45 12 14 16 12 43 -15 57 -58 251 -150 317 -150 42 0 37 16 -6
25 -82 15 -240 104 -271 152 -14 21 -14 26 -2 34 23 15 33 10 56 -24 24 -34
76 -71 87 -60 13 14 5 35 -24 60 -34 28 -40 63 -11 63 12 0 23 -11 30 -31 12
-36 36 -29 27 8 -6 21 1 50 9 41 2 -2 8 -30 14 -63z m1696 15 c10 -11 26 -22
36 -25 43 -14 7 -85 -43 -85 -62 0 -91 67 -48 110 25 25 32 25 55 0z m197
-110 c-23 -19 -88 -37 -98 -27 -3 3 -1 15 6 26 9 17 20 21 63 21 l52 -1 -23
-19z m-2037 -218 c85 -30 225 -67 329 -87 78 -15 142 -16 555 -12 452 5 517 9
741 42 242 37 280 41 280 34 0 -25 -285 -246 -428 -333 -127 -77 -639 -327
-737 -361 -121 -40 -342 -95 -387 -95 -3 0 -12 16 -18 35 -6 19 -21 42 -33 50
-17 12 -19 18 -10 37 20 41 22 56 12 90 -12 44 -58 88 -101 97 -24 5 -34 13
-36 28 -3 22 -1 22 81 16 56 -4 86 -2 91 5 13 21 -35 34 -112 31 -43 -2 -82 0
-87 3 -25 15 -86 19 -120 8 -27 -9 -41 -21 -51 -47 -19 -44 -30 -36 -72 50
-33 66 -55 192 -68 391 l-7 98 59 -30 c32 -16 86 -39 119 -50z m2141 -215
c-25 -172 -39 -394 -35 -575 4 -167 4 -173 -16 -177 -11 -2 -42 -8 -70 -14
-102 -21 -234 -40 -380 -55 -168 -17 -664 -34 -759 -26 l-61 6 70 8 c229 25
386 71 575 169 213 110 310 187 449 354 98 117 137 189 226 418 16 41 16 -7 1
-108z m-106 -13 c-24 -63 -149 -233 -234 -320 -104 -104 -204 -173 -361 -249
-177 -85 -310 -126 -440 -138 -61 -6 -52 -2 138 58 161 51 305 117 418 192
117 76 305 257 399 382 46 61 85 109 87 107 2 -2 -1 -16 -7 -32z m-174 -127
c-51 -60 -212 -203 -290 -258 -129 -92 -316 -173 -516 -225 -141 -37 -279 -66
-293 -61 -6 2 54 25 133 51 187 62 309 110 390 154 106 57 454 279 537 343 42
32 79 57 81 54 2 -2 -16 -28 -42 -58z m-216 -1 c-18 -18 -225 -166 -336 -241
-122 -82 -354 -190 -524 -244 -105 -33 -418 -101 -466 -101 l-25 0 20 26 c12
15 21 32 21 38 0 25 19 36 76 46 199 35 406 104 634 212 52 25 149 66 215 92
66 25 181 77 255 116 146 75 151 77 130 56z m-1785 -62 c8 -4 22 -19 31 -35
14 -29 14 -29 -13 -29 -16 0 -38 -3 -50 -6 -26 -7 -30 7 -13 50 10 27 17 30
45 20z m254 -37 c6 -8 10 -31 8 -53 -2 -39 -2 -39 42 -45 80 -11 118 -86 65
-128 -27 -21 -44 -20 -44 4 0 20 -48 73 -81 90 -56 30 -138 10 -180 -43 -17
-22 -22 -24 -29 -12 -11 17 -12 45 -4 77 5 17 15 23 43 25 29 2 39 9 52 35 9
18 22 40 29 48 16 19 84 20 99 2z m-329 -96 c0 -48 -25 -111 -45 -111 -39 0
-60 -94 -30 -137 13 -19 13 -22 0 -27 -9 -3 -24 3 -35 14 -26 26 -26 83 1 127
20 31 20 35 5 58 -20 30 -20 48 -1 85 14 26 21 30 60 30 l45 0 0 -39z m76 13
c-3 -9 -6 -20 -6 -25 0 -5 -9 -9 -20 -9 -11 0 -20 4 -20 9 0 23 14 41 32 41
14 0 18 -5 14 -16z m3 -110 c7 -19 11 -37 9 -38 -13 -12 -45 -23 -55 -19 -13
5 -18 74 -6 86 17 17 40 4 52 -29z m254 15 c55 -43 61 -168 10 -215 -30 -28
-93 -33 -113 -9 -10 12 -6 17 23 29 62 26 78 96 31 143 -35 35 -56 16 -25 -23
27 -34 27 -59 0 -77 -26 -19 -54 -11 -80 22 -28 35 -21 97 16 128 35 30 102
31 138 2z m-346 -91 c-4 -12 -2 -27 4 -34 15 -18 -17 -40 -36 -24 -28 23 -15
80 17 80 16 0 19 -5 15 -22z m130 -25 c3 -10 12 -26 20 -35 25 -29 12 -61 -27
-70 -29 -6 -38 -4 -52 13 -23 27 -23 67 -1 91 21 23 52 23 60 1z m369 -34 c10
-8 14 -27 12 -53 -3 -38 -5 -41 -36 -44 -21 -2 -38 -12 -48 -27 l-15 -23 -23
21 c-23 21 -23 22 -6 44 9 12 23 42 30 67 12 43 13 44 42 35 16 -4 36 -14 44
-20z m-461 -80 c32 -49 23 -69 -23 -50 -22 9 -31 21 -35 44 -9 62 19 64 58 6z
m170 -44 c0 -16 -8 -21 -37 -23 -43 -4 -49 9 -15 33 28 20 52 15 52 -10z m95
-21 c0 -8 -4 -12 -10 -9 -5 3 -10 10 -10 16 0 5 5 9 10 9 6 0 10 -7 10 -16z
m197 -10 c-3 -3 -12 -4 -19 -1 -8 3 -5 6 6 6 11 1 17 -2 13 -5z m1979 -136 c3
-254 3 -562 -1 -566 -2 -2 -19 5 -37 16 -81 50 -168 36 -239 -37 l-46 -47 -34
23 c-36 25 -87 30 -121 12 -14 -8 -23 -8 -31 0 -6 6 -32 11 -58 11 -61 0 -95
-27 -110 -86 -10 -39 -17 -47 -51 -61 -23 -9 -45 -27 -53 -44 -17 -32 -9 -33
-170 23 -218 77 -382 148 -660 288 -160 80 -304 155 -320 167 -17 11 -61 41
-100 66 -88 57 -338 257 -331 264 3 3 33 1 68 -5 180 -31 315 -52 423 -66 66
-9 163 -21 215 -28 122 -16 631 -15 765 0 387 46 733 102 817 132 29 10 58 19
63 19 6 1 10 -33 11 -81z m-2208 -219 c97 -83 220 -186 272 -228 266 -214 766
-481 1120 -598 l55 -18 -17 -35 c-10 -19 -18 -52 -18 -72 0 -21 -4 -38 -8 -38
-19 0 -259 93 -335 130 -225 109 -618 354 -802 498 -112 89 -348 330 -397 407
-45 70 -62 105 -52 105 3 0 85 -68 182 -151z m-247 26 c47 -116 122 -256 176
-333 70 -99 217 -247 394 -398 262 -222 293 -242 476 -310 162 -61 155 -56
103 -64 -25 -4 -115 -1 -201 6 -86 7 -176 13 -201 12 -25 0 -68 4 -94 10 -27
6 -87 18 -134 27 -140 29 -359 84 -450 114 l-85 27 -7 64 c-4 35 -5 66 -2 69
3 3 19 -1 37 -8 158 -63 571 -141 599 -113 17 17 0 31 -50 37 -195 25 -380 62
-509 101 -73 22 -82 27 -87 52 -13 65 -26 314 -28 527 -2 225 6 324 22 280 5
-11 23 -56 41 -100z m441 -415 c104 -92 406 -300 573 -395 128 -72 376 -199
412 -209 19 -6 53 -36 40 -36 -32 0 -235 49 -317 77 -180 61 -253 101 -440
242 -265 199 -364 290 -476 436 -37 48 -124 195 -124 210 0 5 55 -48 122 -119
68 -71 162 -164 210 -206z m141 213 c48 -29 116 -67 150 -84 34 -18 117 -65
185 -106 69 -41 166 -94 216 -118 100 -47 467 -175 500 -175 16 0 25 -11 38
-47 9 -26 16 -48 15 -49 -2 -2 -268 112 -372 160 -33 16 -94 41 -135 58 -201
79 -513 256 -661 374 -108 86 -94 83 64 -13z m1802 -225 c14 -13 33 -39 43
-58 22 -45 52 -50 80 -15 20 25 23 26 49 13 51 -24 60 -68 38 -175 -7 -29 -4
-34 27 -53 43 -25 68 -77 68 -140 0 -43 -4 -54 -35 -85 -20 -19 -44 -35 -55
-35 -10 0 -40 -18 -66 -41 -43 -37 -50 -40 -88 -34 -61 10 -77 15 -71 26 4 5
21 9 38 9 42 0 95 33 108 68 6 15 8 54 5 87 -6 65 -6 70 -5 163 1 122 -83 199
-159 146 -40 -27 -54 -69 -46 -132 9 -76 52 -122 113 -122 48 0 56 -12 55 -79
-1 -59 -28 -81 -96 -81 -61 0 -88 14 -88 44 0 34 -26 53 -51 38 -26 -17 -35
-10 -65 49 -23 46 -24 52 -10 77 8 15 17 35 20 44 4 13 13 16 38 12 36 -5 55
3 58 26 5 31 -1 39 -34 50 -26 8 -38 20 -50 51 -25 62 -21 87 23 130 34 34 45
39 84 39 33 0 53 -6 72 -22z m-464 1 c19 -10 19 -10 0 -35 -11 -13 -22 -42
-26 -64 l-7 -39 -44 22 c-48 23 -56 46 -28 85 26 37 70 50 105 31z m147 -52
c34 -36 52 -92 52 -162 0 -66 -10 -81 -38 -53 -6 6 -38 17 -69 23 l-58 12 -3
70 c-3 66 -1 72 27 102 34 37 60 39 89 8z m-249 -112 c16 -8 41 -29 56 -46
l27 -33 -42 -19 c-39 -19 -70 -59 -70 -91 0 -32 -21 -25 -46 16 -65 103 -50
176 39 187 4 1 21 -6 36 -14z m621 -3 c0 -5 -11 -14 -24 -20 -13 -6 -27 -20
-31 -32 -7 -23 -25 -18 -25 7 0 25 30 53 57 53 12 0 23 -4 23 -8z m32 -87 c14
-31 7 -39 -27 -31 -18 5 -25 13 -25 31 0 34 36 34 52 0z m-87 -45 c9 -16 21
-30 27 -30 6 0 9 -3 6 -6 -12 -11 -68 27 -68 46 0 29 17 24 35 -10z m-342 -16
c36 -19 65 -67 73 -121 18 -119 -71 -247 -130 -187 -24 23 -19 40 14 54 45 19
70 60 70 115 0 38 -5 52 -29 76 -51 50 -116 34 -109 -28 4 -34 28 -37 44 -5
11 22 11 22 35 3 18 -15 23 -28 23 -60 -2 -57 -26 -81 -79 -81 -89 0 -154 116
-113 205 22 49 130 65 201 29z m-238 -164 c17 -32 49 -67 84 -90 l24 -16 -25
-29 c-21 -24 -33 -29 -77 -29 -46 -1 -56 3 -77 27 -36 42 -33 90 10 133 19 19
37 34 40 34 3 0 12 -13 21 -30z" />
    <path d="M2820 3753 c-101 -33 -226 -53 -333 -53 -78 0 -88 -2 -85 -17 5 -27
71 -35 194 -24 149 15 314 65 314 97 0 22 -13 22 -90 -3z" />
    <path d="M2776 3603 c-3 -4 -64 -9 -134 -12 -101 -5 -127 -9 -127 -20 0 -25
62 -33 169 -22 98 11 136 27 122 50 -8 13 -20 14 -30 4z" />
    <path d="M1574 3039 c-10 -17 6 -26 86 -42 162 -35 303 -46 316 -26 10 16 -15
29 -59 29 -44 0 -207 25 -257 40 -45 13 -77 13 -86 -1z" />
    <path d="M1526 2972 c-10 -17 18 -31 115 -56 129 -33 166 -39 174 -26 10 16 6
18 -71 35 -60 13 -105 25 -190 50 -12 4 -24 2 -28 -3z" />
    <path d="M1154 2489 c-10 -17 16 -37 76 -59 145 -54 305 -78 424 -65 55 5 67
10 64 23 -3 14 -23 18 -133 23 -72 3 -159 14 -195 23 -98 26 -164 48 -174 57
-14 13 -54 11 -62 -2z" />
    <path d="M2600 2383 c-154 -51 -367 -83 -561 -83 -105 0 -129 -7 -129 -37 0
-25 37 -28 216 -21 237 10 385 39 514 101 80 39 49 70 -40 40z" />
    <path d="M1175 2330 c-18 -29 327 -117 379 -97 27 11 8 27 -30 27 -43 0 -202
35 -275 60 -64 23 -66 23 -74 10z" />
    <path d="M2140 2161 c-135 -7 -150 -26 -20 -25 100 0 180 11 180 25 0 5 -10 8
-22 7 -13 -1 -75 -4 -138 -7z" />
    <path d="M3237 2123 c-12 -12 -8 -351 4 -359 23 -14 29 25 29 182 0 123 -3
164 -13 173 -8 6 -17 8 -20 4z" />
    <path d="M3156 2014 c-8 -21 -7 -333 1 -363 14 -53 22 15 22 197 1 165 -6 211
-23 166z" />
    <path d="M3269 1458 c-3 -40 3 -396 7 -410 8 -26 23 -22 30 7 11 45 -9 408
-23 413 -7 2 -14 -2 -14 -10z" />
    <path d="M3334 1253 c8 -184 26 -248 26 -93 0 134 -11 260 -23 260 -6 0 -7
-58 -3 -167z" />
    <path d="M2955 1340 c-55 -11 -126 -24 -158 -30 -112 -21 -394 -40 -605 -40
-166 0 -213 -3 -210 -12 10 -29 526 -24 743 7 218 32 380 69 369 87 -7 11 -22
9 -139 -12z" />
    <path d="M2755 1168 c-27 -5 -162 -10 -300 -11 -214 -2 -250 -4 -250 -17 0
-19 73 -27 250 -29 135 -1 383 23 398 38 14 14 -1 31 -26 30 -12 -1 -44 -6
-72 -11z" />
    <path d="M2334 1015 c-10 -26 8 -32 119 -38 145 -7 251 3 255 26 3 15 -9 17
-136 17 -77 0 -160 3 -185 6 -39 6 -48 4 -53 -11z" />
    <path d="M1030 777 c0 -11 17 -21 48 -30 88 -27 160 -40 178 -33 40 15 -34 44
-188 71 -31 6 -38 4 -38 -8z" />
    <path d="M1047 663 c-4 -3 -7 -10 -7 -14 0 -18 329 -105 357 -95 19 8 16 34
-4 40 -10 2 -54 12 -98 21 -44 10 -111 26 -150 36 -76 21 -88 22 -98 12z" />
  </g>
</svg>